<?xml version="1.0" encoding="UTF-8" standalone="no"?>
<svg
   xmlns:dc="http://purl.org/dc/elements/1.1/"
   xmlns:cc="http://creativecommons.org/ns#"
   xmlns:rdf="http://www.w3.org/1999/02/22-rdf-syntax-ns#"
   xmlns:svg="http://www.w3.org/2000/svg"
   xmlns="http://www.w3.org/2000/svg"
   xmlns:sodipodi="http://sodipodi.sourceforge.net/DTD/sodipodi-0.dtd"
   xmlns:inkscape="http://www.inkscape.org/namespaces/inkscape"
   width="300"
   height="296"
   viewBox="0 0 376 370"
   version="1.0"
   id="svg2"
   sodipodi:version="0.32"
   inkscape:version="0.46"
   sodipodi:docname="Microsoft_Store_Logo.svg"
   inkscape:output_extension="org.inkscape.output.svg.inkscape">
  <metadata
     id="metadata46">
    <rdf:RDF>
      <cc:Work
         rdf:about="">
        <dc:format>image/svg+xml</dc:format>
        <dc:type
           rdf:resource="http://purl.org/dc/dcmitype/StillImage" />
      </cc:Work>
    </rdf:RDF>
  </metadata>
  <defs
     id="defs44">
    <inkscape:perspective
       sodipodi:type="inkscape:persp3d"
       inkscape:vp_x="0 : 231.25 : 1"
       inkscape:vp_y="0 : 1000 : 0"
       inkscape:vp_z="470 : 231.25 : 1"
       inkscape:persp3d-origin="235 : 154.16667 : 1"
       id="perspective48" />
  </defs>
  <sodipodi:namedview
     inkscape:window-height="669"
     inkscape:window-width="640"
     inkscape:pageshadow="2"
     inkscape:pageopacity="0.0"
     guidetolerance="10.0"
     gridtolerance="10.0"
     objecttolerance="10.0"
     borderopacity="1.0"
     bordercolor="#666666"
     pagecolor="#ffffff"
     id="base"
     showgrid="false"
     inkscape:zoom="0.99891892"
     inkscape:cx="235"
     inkscape:cy="231.25"
     inkscape:window-x="184"
     inkscape:window-y="95"
     inkscape:current-layer="svg2" />
  <g
     id="#467ebdff">
    <path
       d="M 0,0 L 0.13,0 C 0.09,0 0.03,0.01 0,0.02 L 0,0 z"
       id="path5"
       style="opacity:1;fill:#467ebd" />
    <path
       d="M 55.3,193.89 C 69.24,193.87 83.18,193.86 97.12,193.88 C 96.91,196.26 96.83,198.65 96.85,201.03 C 96.93,226.04 96.78,251.04 96.92,276.04 C 124.52,276.13 152.15,276.28 179.75,275.97 C 179.58,248.59 179.83,221.2 179.62,193.82 L 180.52,194.25 C 180.07,251.1 181,307.94 180.68,364.78 L 179.89,365 C 123.42,364.98 66.94,365.01 10.47,364.98 C 11.22,364.35 12.05,363.98 12.97,363.86 C 68.59,363.82 124.22,363.95 179.84,363.79 C 180.33,348.85 179.99,333.86 180.03,318.91 C 179.93,318.38 179.73,317.31 179.63,316.78 C 142.07,316.78 104.52,316.76 66.97,316.8 C 63.12,316.77 59.25,317.01 55.42,316.59 C 55.14,275.7 55.4,234.79 55.3,193.89 z"
       id="path7"
       style="opacity:1;fill:#467ebd" />
  </g>
  <g
     id="#fefefeff" />
  <g
     id="#d03f42ff">
    <path
       d="M 9.75,6.76 C 66.72,6.77 123.71,6.89 180.68,6.7 C 180.58,21.75 180.69,36.81 180.63,51.86 C 139.68,52.33 98.69,51.69 57.73,52.17 C 57.2,57.11 57.62,62.1 57.51,67.06 C 57.39,103.95 57.75,140.86 57.33,177.74 C 41.52,177.84 25.69,177.63 9.89,177.85 C 9.64,120.89 9.91,63.78 9.75,6.76 z"
       id="path11"
       style="opacity:1;fill:#d03f42" />
  </g>
  <g
     id="#7ab951ff">
    <path
       d="M 196.97,6.71 C 253.97,6.88 310.97,6.75 367.97,6.77 C 367.65,63.76 368.15,120.8 367.72,177.75 C 352.5,177.71 337.25,177.79 322.02,177.71 C 322.71,157.51 322.13,137.27 322.35,117.05 C 322.15,96.2 322.7,75.32 322.09,54.49 C 284.07,55.01 246.04,54.52 208.02,54.71 C 204.33,54.74 200.63,54.64 196.97,54.06 C 196.95,38.28 196.94,22.49 196.97,6.71 z"
       id="path14"
       style="opacity:1;fill:#7ab951" />
  </g>
  <g
     id="#da763dff">
    <path
       d="M 57.73,52.17 C 98.69,51.69 139.68,52.33 180.63,51.86 C 180.67,65.86 180.71,79.87 180.62,93.86 C 156.07,93.59 131.52,93.83 106.97,93.72 C 103.98,93.73 100.99,93.63 98.02,93.93 C 97.61,121.86 97.95,149.82 97.82,177.76 C 84.33,177.73 70.83,177.76 57.33,177.74 C 57.75,140.86 57.39,103.95 57.51,67.06 C 57.62,62.1 57.2,57.11 57.73,52.17 z"
       id="path17"
       style="opacity:1;fill:#da763d" />
  </g>
  <g
     id="#91c24fff">
    <path
       d="M 196.97,54.06 C 200.63,54.64 204.33,54.74 208.02,54.71 C 246.04,54.52 284.07,55.01 322.09,54.49 C 322.7,75.32 322.15,96.2 322.35,117.05 C 322.13,137.27 322.71,157.51 322.02,177.71 C 308.38,177.77 294.73,177.69 281.08,177.77 C 281.07,152.83 281.06,127.89 281.07,102.95 C 281.05,100.38 281.1,97.8 280.82,95.24 C 252.87,95.01 224.9,95.37 196.95,95.06 C 196.96,81.4 196.89,67.73 196.97,54.06 z"
       id="path20"
       style="opacity:1;fill:#91c24f" />
  </g>
  <g
     id="#e39735ff">
    <path
       d="M 98.02,93.93 C 100.99,93.63 103.98,93.73 106.97,93.72 C 131.52,93.83 156.07,93.59 180.62,93.86 C 180.58,121.79 180.74,149.74 180.54,177.65 C 152.99,177.95 125.39,177.72 97.82,177.76 C 97.95,149.82 97.61,121.86 98.02,93.93 z"
       id="path23"
       style="opacity:1;fill:#e39735" />
  </g>
  <g
     id="#c5d743ff">
    <path
       d="M 196.95,95.06 C 224.9,95.37 252.87,95.01 280.82,95.24 C 281.1,97.8 281.05,100.38 281.07,102.95 C 281.06,127.89 281.07,152.83 281.08,177.77 C 253.01,177.58 224.93,177.88 196.86,177.61 C 196.98,150.1 196.81,122.57 196.95,95.06 z"
       id="path26"
       style="opacity:1;fill:#c5d743" />
  </g>
  <g
     id="#3b68acff">
    <path
       d="M 9.79,193.85 C 24.96,193.93 40.13,193.85 55.3,193.89 C 55.4,234.79 55.14,275.7 55.42,316.59 C 59.25,317.01 63.12,316.77 66.97,316.8 C 104.52,316.76 142.07,316.78 179.63,316.78 C 179.73,317.31 179.93,318.38 180.03,318.91 C 179.99,333.86 180.33,348.85 179.84,363.79 C 124.22,363.95 68.59,363.82 12.97,363.86 C 12.05,363.98 11.22,364.35 10.47,364.98 L 9.79,365.11 C 9.81,308.02 9.83,250.93 9.79,193.85 z"
       id="path29"
       style="opacity:1;fill:#3b68ac" />
  </g>
  <g
     id="#84acddff">
    <path
       d="M 97.12,193.88 C 124.62,193.83 152.12,193.96 179.62,193.82 C 179.83,221.2 179.58,248.59 179.75,275.97 C 152.15,276.28 124.52,276.13 96.92,276.04 C 96.78,251.04 96.93,226.04 96.85,201.03 C 96.83,198.65 96.91,196.26 97.12,193.88 z"
       id="path32"
       style="opacity:1;fill:#84acdd" />
  </g>
  <g
     id="#f8e67aff">
    <path
       d="M 196.79,193.81 C 224.26,193.73 251.73,193.76 279.21,193.79 C 279.47,221.64 279.24,249.49 279.31,277.34 C 278.23,277.48 277.15,277.56 276.06,277.57 C 249.67,277.52 223.28,277.56 196.89,277.55 C 196.78,249.63 196.98,221.72 196.79,193.81 z"
       id="path35"
       style="opacity:1;fill:#f8e67a" />
  </g>
  <g
     id="#f3d332ff">
    <path
       d="M 279.21,193.79 C 292.83,193.83 306.47,193.73 320.09,193.85 C 319.96,231.57 320.09,269.3 320.05,307.03 C 320.01,311.01 320.24,315 319.85,318.97 C 315.6,319.55 311.3,319.32 307.02,319.36 C 274.7,319.36 242.37,319.35 210.04,319.36 C 205.64,319.23 201.09,319.83 196.86,318.28 C 196.93,304.71 196.88,291.12 196.89,277.55 C 223.28,277.56 249.67,277.52 276.06,277.57 C 277.15,277.56 278.23,277.48 279.31,277.34 C 279.24,249.49 279.47,221.64 279.21,193.79 z"
       id="path38"
       style="opacity:1;fill:#f3d332" />
  </g>
  <g
     id="#ecb842ff">
    <path
       d="M 320.09,193.85 C 336.03,193.79 351.96,193.93 367.89,193.76 C 367.75,250.77 367.94,307.8 367.8,364.82 C 310.83,364.85 253.85,364.87 196.87,364.81 C 196.89,349.3 196.92,333.79 196.86,318.28 C 201.09,319.83 205.64,319.23 210.04,319.36 C 242.37,319.35 274.7,319.36 307.02,319.36 C 311.3,319.32 315.6,319.55 319.85,318.97 C 320.24,315 320.01,311.01 320.05,307.03 C 320.09,269.3 319.96,231.57 320.09,193.85 z"
       id="path41"
       style="opacity:1;fill:#ecb842" />
  </g>
</svg>
